# xmcd
#
# Track frame offsets:
#	180
#	13379
#	22680
#	31028
#	43388
#	52689
#	68366
#	78611
#	92833
#	101720
#	113801
#	125934
#	136806
#	150436
#	166766
#	182144
#
# Disc length: 2684 seconds
#
# Revision: 1
# Processed by: cddbd v1.5.2PL0 Copyright (c) Steve Scherf et al.
# Submitted via: EZCDAudioConverter 7.0.6.1
#
DISCID=c40a7a10
DTITLE=Various Artist - Mondo Drive-In
DYEAR=1997
DGENRE=
TTITLE0=Satan's Pilgrims - The Godfather
TTITLE1=The Tiki Tones - The Ghost And Mr. Chicken
TTITLE2=The Surf Trio - Beach Party
TTITLE3=The Boardwalkers - The Angry Breed
TTITLE4=The Exotics - Casbah
TTITLE5=Thee Phantom 5ive - Mummy Walk
TTITLE6=Boss Martians - Hold On
TTITLE7=The Unclaimed - Villiage Of The Giants
TTITLE8=The Chesterfield Kings - Muscle Beach Party
TTITLE9=The Insect Surfers - Zorba's Dance
TTITLE10=The Galaxy Trio - Titoli (From "A Fistful Of Dollars")
TTITLE11=Popdefect with Carolyn Edwards - Bedazzled
TTITLE12=The Penetrators - Chariots Of Foam
TTITLE13=Planet Seven - Lara's Theme
TTITLE14=The Neptunas - Faster Pussycat
TTITLE15=Miss Murgatroid - The Words Get Stuck In My Throat
EXTD=
EXTT0=
EXTT1=
EXTT2=
EXTT3=
EXTT4=
EXTT5=
EXTT6=
EXTT7=
EXTT8=
EXTT9=
EXTT10=
EXTT11=
EXTT12=
EXTT13=
EXTT14=
EXTT15=
PLAYORDER=
